<?xml version="1.0" encoding="UTF-8" standalone="no"?>
<!-- Created with Inkscape (http://www.inkscape.org/) -->

<svg
   xmlns:osb="http://www.openswatchbook.org/uri/2009/osb"
   xmlns:dc="http://purl.org/dc/elements/1.1/"
   xmlns:cc="http://creativecommons.org/ns#"
   xmlns:rdf="http://www.w3.org/1999/02/22-rdf-syntax-ns#"
   xmlns:svg="http://www.w3.org/2000/svg"
   xmlns="http://www.w3.org/2000/svg"
   xmlns:sodipodi="http://sodipodi.sourceforge.net/DTD/sodipodi-0.dtd"
   xmlns:inkscape="http://www.inkscape.org/namespaces/inkscape"
   version="1.1"
   id="svg2"
   width="1432.7933"
   height="1857.8051"
   viewBox="0 0 1432.7933 1857.8051"
   sodipodi:docname="Logo_Nussbaum.svg"
   inkscape:version="0.92.4 (unknown)">
  <metadata
     id="metadata8">
    <rdf:RDF>
      <cc:Work
         rdf:about="">
        <dc:format>image/svg+xml</dc:format>
        <dc:type
           rdf:resource="http://purl.org/dc/dcmitype/StillImage" />
        <dc:title></dc:title>
      </cc:Work>
    </rdf:RDF>
  </metadata>
  <defs
     id="defs6">
    <linearGradient
       id="linearGradient5996">
      <stop
         style="stop-color:#000000;stop-opacity:1;"
         offset="0"
         id="stop5994" />
    </linearGradient>
    <linearGradient
       id="linearGradient4556"
       osb:paint="solid">
      <stop
         style="stop-color:#000000;stop-opacity:1;"
         offset="0"
         id="stop4554" />
    </linearGradient>
    <filter
       inkscape:collect="always"
       style="color-interpolation-filters:sRGB"
       id="filter826"
       x="-0.0041368818"
       width="1.0082738"
       y="-0.003186463"
       height="1.0063729">
      <feGaussianBlur
         inkscape:collect="always"
         stdDeviation="2.4561592"
         id="feGaussianBlur828" />
    </filter>
  </defs>
  <sodipodi:namedview
     pagecolor="#ffffff"
     bordercolor="#666666"
     borderopacity="1"
     objecttolerance="10"
     gridtolerance="10"
     guidetolerance="10"
     inkscape:pageopacity="0"
     inkscape:pageshadow="2"
     inkscape:window-width="1277"
     inkscape:window-height="733"
     id="namedview4"
     showgrid="false"
     inkscape:zoom="0.27667058"
     inkscape:cx="716.39667"
     inkscape:cy="928.90253"
     inkscape:window-x="0"
     inkscape:window-y="30"
     inkscape:window-maximized="0"
     inkscape:current-layer="svg2"
     inkscape:snap-center="false"
     inkscape:object-nodes="true"
     inkscape:pagecheckerboard="true" />
  <path
     style="opacity:0.706;fill:#884e38;fill-opacity:1;stroke:#734330;stroke-width:3.5;stroke-linecap:butt;stroke-linejoin:round;stroke-miterlimit:4;stroke-dasharray:none;stroke-opacity:1;filter:url(#filter826)"
     d="M 730.61345,3.9298547 C 713.80488,18.919353 700.8901,42.454485 678.08025,54.95134 623.90081,106.24915 566.71096,161.76607 550.97283,237.97478 c -25.00409,87.4467 -10.32914,180.65088 9.22265,267.61524 17.64625,60.76983 40.96312,121.38504 87.57813,166.15039 19.60204,28.04963 66.77896,41.5885 60.41211,82.05078 -1.32071,34.51347 10.68616,72.83527 0.78515,104.9375 -10.2006,-10.62278 -8.3874,-52.23198 -20.75976,-72.40625 C 661.05038,742.4681 618.72932,709.77488 580.95134,675.53728 494.30307,622.17256 411.31243,558.66399 310.51384,534.549 c -69.89291,-27.66502 -144.02533,-4.3407 -215.064454,2.48633 -32.04532,1.31719 -63.827138,-6.77405 -91.5195315,-22.87696 30.0662285,42.82254 58.0532965,87.84454 66.9511715,140.4004 23.53478,77.43164 77.352134,146.53689 147.271484,187.24414 112.48525,55.35964 239.89571,68.62473 363.40821,75.82226 37.58168,-1.09142 77.93958,-12.06535 102.95898,-42.11328 42.78408,9.07033 22.56258,60.23001 27.49609,90.92969 0.38063,68.80052 2.8579,137.04332 -3.73828,204.38082 10.36497,41.8143 -19.32867,60.2561 -33.92773,-0.1582 -12.63137,-34.8158 -104.15158,-77.5978 -163.79102,-97.459 -65.78911,-17.6246 -134.9144,-10.9051 -201.73437,-12.252 -48.18181,5.7556 -92.17083,26.4998 -135.00195,48.1817 -46.51159,31.3761 -88.933134,67.7903 -129.85743,105.8906 -20.838727,11.0923 -20.212891,20.7754 -20.212891,20.7754 0,0 19.474585,5.8847 36.330078,9.3809 38.365389,18.1454 66.155123,52.4899 107.220703,66.4902 98.35517,46.687 211.43161,34.8831 316.96289,30 69.39305,-3.5998 175.93424,-49.7301 185.0586,-87.2324 5.24169,-24.0508 44.55984,-34.0582 37.69922,-3.0586 -6.97829,49.7999 -1.78219,100.9421 -6.90625,150.3008 -29.29645,4.0439 -50.60414,-28.5678 -80.25781,-31.7481 -93.54049,-22.4707 -183.98431,38.3686 -242.99219,105.9512 -28.27609,19.562 -32.4894,52.7425 -37.58203,83.8555 -0.46522,12.1438 -21.85352,36.8125 -21.85352,36.8125 0,0 16.18188,0.5795 34.26172,-2.7461 49.06021,10.694 98.03714,26.3283 149.50781,8.8515 64.7336,-19.2163 139.04027,-44.6943 173.79297,-106.7129 12.88033,-20.03 1.47489,-53.0964 10.4707,-68.1445 28.09945,4.2838 11.10094,39.1672 18.29297,59.666 -1.02614,88.6944 2.06059,177.7294 -1.56054,266.209 -13.78294,30.7711 6.02881,67.7053 0.88281,100.1992 20.38023,-19.7212 43.58157,-34.5679 41.9043,-66.1426 0.91929,-33.5052 -20.4152,-76.3944 -14.07618,-114.1718 -0.21123,-77.6281 -0.42354,-155.2567 -0.63476,-232.8848 28.88408,70.897 74.54985,144.555 152.63476,166.7637 68.05529,21.0595 140.73783,9.4872 209.75783,24.0527 -1.6457,-47.2552 -25.2998,-103.0272 -43.7129,-134.1816 -27.9556,-37.155 -81.64044,-94.703 -143.9629,-115.2129 -48.87895,-16.6407 -112.38071,-29.4514 -150.79882,15.4238 -8.33258,7.0537 -20.58594,12.6582 -20.58594,12.6582 0,0 -3.62758,-20.1397 -3.53906,-34.8301 0.14993,-24.881 4.37861,-60.1301 0.35156,-84.3769 -8.08283,-64.633 21.0605,-96.6772 50.70703,-52.7559 21.21348,42.1883 73.06484,50.3647 113.45312,64.8028 78.13398,21.1988 162.75561,20.8001 241.24221,1.4355 70.4684,-25.9254 133.5491,-67.2247 195.125,-108.9902 27.0598,-13.9741 59.2643,-30.8516 86.3203,-42.2422 -5.4218,-16.8782 -42.6654,-27.261 -57.3281,-45.8203 -42.9285,-42.3268 -98.5647,-67.5156 -157.6719,-77.6875 -78.9896,-27.775 -163.9604,-21.0645 -244.04688,-1.8575 -77.07517,11.0199 -180.4206,87.2024 -184.27148,131.5372 -3.71283,35.5516 -39.50349,51.1781 -38.30665,17.6855 2.40481,-88.5659 1.75916,-177.83405 7.11524,-265.94136 8.43301,-40.13289 54.49556,-19.46802 82.06055,-17.60742 73.01836,12.93721 148.40399,-0.98574 220.35352,-14.78906 76.4274,-14.72592 151.6749,-41.04606 211.2754,-92.80859 65.9465,-46.04073 107.4407,-117.91831 128.4219,-194.30469 2.3326,-26.27311 31.4949,-31.14722 43.9961,-46.4336 -29.0287,-9.38972 -72.4816,-5.48784 -104.9395,-15.61328 -41.5616,-12.08065 -70.0334,-22.32671 -127.6582,-14.62695 -123.432,10.72282 -140.0018,23.15657 -235.60547,73.17578 -77.49469,44.89079 -172.43641,149.23363 -185.5918,189.9082 -14.34221,38.60102 -3.26139,76.21409 -9.95898,84.47461 -31.24229,24.55968 -24.79936,-30.00066 -24.07618,-48.3125 2.50833,-29.86876 -4.05263,-63.7062 4.08789,-91.11132 C 805.94719,664.23826 869.63084,555.93675 877.25603,507.32048 886.99931,472.9019 898.56981,395.92311 890.51775,340.0197 883.82875,238.13722 845.582,136.51822 770.82829,64.937668 749.84957,50.066213 742.48225,22.724759 730.61345,3.9298547 Z M 725.8646,191.83966 c 0.57927,29.03058 6.24584,131.33892 7.11799,160.36754 2.83857,40.17913 1.55767,80.43608 0.53516,120.66016 -2.42714,67.19982 -0.77644,134.4991 -5.01172,201.63477 -1.20809,-2.81889 -1.52859,6.3496 -3.62305,-8.45704 -2.09446,-14.80664 -4.58354,-53.48241 -5.71093,-80.29492 -0.24555,-26.37728 -5.44868,-52.56178 -3.78907,-78.94922 2.88293,-26.2907 1.03424,-52.67675 -0.85156,-78.96093 -0.42663,-33.3271 2.47902,-66.64103 3.72656,-99.94727 -0.35007,-21.31346 3.21781,-115.37118 7.60662,-136.05309 z M 253.83044,663.79203 c 40.32935,3.86314 134.54258,54.29029 172.02325,68.20033 57.46512,24.54507 113.99301,51.32028 172.54296,73.27344 20.417,9.21461 42.81272,15.20085 60.67383,29.21093 4.06666,2.81537 8.13257,5.62995 12.19922,8.44532 C 620.55479,822.2681 567.80176,807.13416 517.14275,786.30291 461.2829,764.16767 405.63128,741.34709 350.71697,716.99822 Z m 855.70756,15.93559 c -0.3674,1.22238 -113.15463,72.27301 -117.08083,75.16708 -38.65297,25.01542 -79.02357,47.26514 -119.7695,68.6543 -21.63866,10.22376 -43.19511,20.86116 -65.89062,28.58398 2.21282,-1.43639 4.42389,-2.8722 6.63671,-4.30859 26.69214,-18.00485 54.6982,-33.90568 82.6875,-49.77734 23.70265,-13.93468 47.44272,-27.8575 72.25191,-39.76563 11.5681,-7.10611 128.26243,-75.02548 141.16483,-78.5538 z m -2.0819,465.92668 c -21.0779,5.0684 -165.20262,20.2025 -186.23523,25.4552 -19.1826,5.4456 -38.83727,8.874 -58.52343,11.9062 -25.52267,5.0223 -51.48685,6.9108 -77.32227,9.5645 10.77883,-2.585 21.59607,-5.0079 32.38477,-7.5508 18.14706,-3.6942 35.55256,-10.2301 53.65625,-14.0508 21.95908,-2.9948 36.3467,-7.8966 65.49414,-11.3945 29.14744,-3.4979 154.68657,-13.1489 170.54577,-13.9298 z m -570.60241,51.9161 c 36.26168,-0.053 81.31751,2.082 121.52148,3.0098 -15.61652,1.7098 -23.39243,3.8625 -46.83008,5.3535 -23.43765,1.491 -52.00661,5.0668 -81.61719,4.6035 -29.61058,-0.4633 -180.85686,1.651 -208.70779,-1.0015 31.78322,-1.9507 171.13904,-11.5408 208.50272,-11.9243 2.33523,-0.024 4.71341,-0.037 7.13086,-0.041 z m 238.52148,220.0098 c 10.67345,1.8781 22.09874,2.3853 32.06641,5.4238 9.96767,3.0385 19.26982,6.522 27.88281,11.1875 8.61299,4.6655 18.76987,11.2034 24.18945,15.543 5.41958,4.3396 109.2662,73.6654 111.6784,77.244 -4.69999,-1.4018 -113.12221,-69.076 -117.46746,-71.3924 -13.42375,-8.1774 -27.91102,-17.0127 -41.19336,-22.9395 -13.28234,-5.9268 -24.80066,-9.9711 -37.15625,-15.0664 z m -134.45508,2.4551 c -8.06107,4.5344 -16.12252,9.0691 -24.18359,13.6035 -8.77686,4.4153 -16.81839,10.1049 -24.49805,16.2012 -13.65382,11.4191 -93.47442,52.622 -108.70924,61.6015 16.27947,-16.1616 92.93764,-59.1215 110.39479,-73.957 15.00524,-9.1172 32.98095,-13.2825 46.99609,-17.4492 z"
     id="path7"
     inkscape:connector-curvature="0"
     sodipodi:nodetypes="ccccccccccccccccccccccccccccccccccccccccccccccccccsccccccccccccccccccccccccccccccccscccccccccccccccccccccccccccscccssccccsssccsccccccc" />
</svg>
