<?xml version="1.0" encoding="UTF-8" standalone="no"?><!DOCTYPE svg PUBLIC "-//W3C//DTD SVG 1.1//EN" "http://www.w3.org/Graphics/SVG/1.1/DTD/svg11.dtd"><svg  viewBox="0 0 548 346" version="1.1" xmlns="http://www.w3.org/2000/svg" xmlns:xlink="http://www.w3.org/1999/xlink" xml:space="preserve" style="fill-rule:evenodd;clip-rule:evenodd;stroke-linejoin:round;stroke-miterlimit:1.41421;"><path d="M319.344,93.608c0.652,0.312 0.828,-0.564 1.08,-0.84c0.962,-1.049 2.121,-2.093 3.24,-3.12c2.91,-2.671 5.912,-5.296 9.36,-7.56c0.428,-0.281 1.021,-0.44 1.439,-0.72c1.151,-0.77 2.472,-1.64 3.6,-2.64c4.842,-1.568 10.242,-5.822 15.601,-3.72c4.117,1.615 5.126,6.622 5.76,12.6c0.989,9.324 1.472,16.579 2.521,25.92c0.208,1.86 0.612,4.164 0.96,6.24c0.56,3.345 1.072,5.239 4.68,5.16c0.856,-0.019 1.733,-0.241 2.64,-0.48c2.464,-0.649 4.376,-1.834 6.24,-3c2.098,-1.311 3.865,-2.198 5.76,-3.6c1.122,-0.83 2.36,-1.697 3.48,-2.64c1.639,-1.38 3.331,-2.634 5.04,-4.2c0.939,-0.861 2.069,-1.857 3.359,-2.88c0.465,-0.368 1.108,-0.94 1.681,-1.44c0.662,-0.579 1.295,-1.217 1.439,-1.56c0.377,-0.891 0.299,-2.127 0.48,-3.12c0.175,-0.957 0.485,-1.887 0.72,-2.76c0.51,-1.896 0.815,-3.864 1.44,-5.64c0.302,-0.859 0.736,-1.674 1.08,-2.52c0.981,-2.422 2.165,-4.6 3.6,-6.84c0.934,-1.459 1.963,-2.743 3,-4.08c1.035,-1.335 2.237,-2.39 3.6,-3.48c1.227,-0.981 2.685,-2.004 4.32,-2.76c2.466,-1.14 4.911,-2.49 8.76,-2.28c4.302,0.235 6.503,3.567 5.521,7.92c-0.657,2.912 -3.075,5.437 -5.16,7.68c-1.866,2.008 -4.123,3.719 -6,5.52c-1.393,1.336 -3.161,2.542 -4.8,3.84c-1.603,1.268 -2.804,2.362 -4.681,3.96c-0.817,0.697 -2.752,1.861 -3,2.76c-0.306,1.11 -0.058,2.75 -0.12,4.08c-0.062,1.349 -0.338,2.637 -0.359,3.72c-0.095,4.701 -0.053,9.78 1.439,12.48c1.039,1.88 3.848,3.087 7.08,2.28c1.351,-0.337 2.612,-1.166 3.96,-1.8c1.313,-0.618 2.388,-1.487 3.48,-2.16c6.92,-4.259 13.321,-9.294 19.2,-14.64c4.757,-4.326 9.706,-8.865 14.16,-14.04c1.78,-2.069 3.211,-4.054 4.92,-6.36c0.602,-0.813 1.161,-1.646 1.68,-2.64c0.76,-1.459 1.25,-3.923 1.68,-5.88c0.384,-1.747 0.753,-3.484 1.08,-5.16c1.337,-6.845 3.429,-13.167 5.641,-19.32c3.264,-9.082 7.426,-17.31 12.359,-25.08c1.588,-2.501 3.194,-4.902 5.16,-7.32c1.571,-1.932 4.105,-5.123 6.48,-5.88c2.858,-0.911 5.632,0.188 6.6,2.28c1.261,2.726 0.814,6.804 0.24,9.84c-1.76,9.299 -6.069,16.673 -9.96,23.88c-1.271,2.354 -2.718,4.784 -4.2,7.08c-1.512,2.341 -3.123,4.509 -4.68,6.6c-2.244,3.013 -4.989,6.232 -7.561,9.36c-0.965,1.174 -2.193,2.244 -2.52,3.12c-0.262,0.7 -0.205,1.793 -0.36,2.76c-0.414,2.58 -0.812,5.709 -1.2,8.16c-0.581,3.681 -1.227,7.09 -1.56,10.68c-0.158,1.698 -0.46,3.589 -0.48,5.52c-0.09,8.675 -0.338,18.197 5.28,21.12c1.078,0.561 3.255,1.038 5.4,0.84c4.258,-0.392 8.872,-2.418 12,-4.44c5.039,-3.257 9.551,-7.164 13.68,-11.52c0.466,-0.492 1.107,-0.921 1.56,-1.44c0.473,-0.542 0.807,-1.11 1.32,-1.56c2.16,-1.892 3.876,-3.995 5.76,-6.12c1.596,-1.8 3.146,-3.792 4.561,-5.88c1.697,-2.506 3.204,-5.75 4.439,-8.88c1.108,-2.807 1.625,-5.905 3.12,-8.76c2.439,0.014 4.823,-0.198 7.08,0.12c-0.342,3.403 -1.5,6.645 -2.4,9.96c-0.862,3.177 -1.714,6.393 -2.64,9.6c-0.465,1.611 -1.107,3.135 -1.56,4.68c-0.481,1.641 -0.693,3.348 -1.08,5.04c-0.393,1.714 -0.778,3.444 -0.96,5.16c-0.2,1.885 0.013,3.65 0.12,5.76c0.037,0.738 -0.242,1.128 -0.12,1.92c0.08,0.522 0.513,1.009 0.84,1.68c0.302,0.618 0.452,1.302 0.72,1.8c1.912,3.552 4.993,5.947 10.68,5.28c1.471,-0.172 2.874,-0.538 4.32,-0.6c0.113,1.171 -2.004,1.181 -3.12,1.44c-1.292,0.299 -2.793,0.622 -3.96,0.72c-7.521,0.635 -13.219,-1.827 -15.72,-7.32c-2.309,-5.07 -1.129,-12.392 -0.72,-19.08c-0.652,-0.252 -0.834,0.56 -1.08,0.84c-0.934,1.06 -2.131,1.981 -3.12,3.12c-3.85,4.431 -7.905,8.477 -12.601,12.48c-2.245,1.914 -4.665,3.621 -7.199,5.4c-1.625,1.14 -3.158,2.11 -5.16,3.12c-2.5,1.261 -5.751,2.819 -9.36,3.12c-0.906,0.076 -1.884,0.003 -2.76,0c-2.556,-0.009 -5.792,-0.255 -8.16,-1.56c-0.898,-0.495 -1.896,-1.251 -2.64,-2.04c-2.281,-2.419 -4.066,-5.392 -4.92,-9.48c-0.284,-1.356 -0.532,-2.75 -0.721,-4.2c-0.981,-7.557 0.988,-15.611 1.32,-22.44c-0.346,-0.318 -1.061,0.546 -1.44,0.96c-0.428,0.468 -0.775,1.184 -1.199,1.68c-0.854,1 -1.895,1.945 -2.88,2.88c-2.978,2.825 -5.32,5.984 -8.521,8.64c-1.042,0.865 -1.968,1.875 -3,2.76c-2.019,1.73 -3.947,3.562 -6.12,5.28c-2.105,1.665 -4.235,3.343 -6.479,5.04c-4.299,3.25 -8.349,6.542 -13.44,9.36c-3.421,1.894 -7.215,3.871 -12.12,2.4c-1.507,-0.452 -3.356,-1.604 -4.319,-2.52c-3.811,-3.621 -3.975,-10.593 -4.2,-18c-0.941,-0.252 -1.378,0.842 -1.92,1.32c-0.612,0.54 -1.339,0.932 -1.92,1.44c-3.564,3.117 -7.362,6.285 -11.521,9c-3.996,2.61 -8.508,5.202 -13.68,6.6c-1.779,0.481 -3.603,1.061 -5.4,1.2c-3.854,0.298 -6.775,-0.622 -7.92,-3.12c-0.609,-1.331 -0.892,-3.46 -1.08,-5.4c-0.371,-3.833 -0.641,-7.461 -0.96,-11.4c-0.08,-0.996 -0.276,-1.925 -0.359,-2.88c-0.047,-0.532 0.072,-1.046 0,-1.56c-0.059,-0.412 -0.315,-0.796 -0.36,-1.2c-0.11,-0.989 -0.123,-1.971 -0.24,-3c-0.325,-2.853 -0.604,-5.627 -0.96,-8.52c-0.344,-2.798 -1.01,-9.048 -3,-10.2c-0.729,-0.422 -2.005,-0.563 -3.36,-0.48c-1.357,0.083 -2.855,0.54 -4.199,0.96c-2.617,0.819 -4.343,1.7 -6.601,2.88c-0.934,0.487 -1.907,1.061 -2.76,1.68c-3.483,2.531 -6.556,5.085 -9.36,8.4c-1.354,1.601 -2.691,3.428 -3.6,5.16c-1.101,2.099 -1.35,5.505 -1.8,8.4c-1.109,7.127 -2.298,15.471 -3.601,22.32c-2.251,-0.066 -5.262,0.277 -7.56,0.12c0.132,-3.062 0.981,-5.94 1.44,-8.88c0.458,-2.935 0.907,-5.863 1.439,-8.76c0.269,-1.462 0.399,-2.996 0.72,-4.439c0.883,-3.98 1.899,-8.49 2.28,-13.08c-0.79,0.257 -1.297,1.069 -1.8,1.68c-1.564,1.897 -3.457,3.717 -5.16,5.64c-1.687,1.904 -3.445,3.685 -5.28,5.52c-0.59,0.59 -1.418,1.056 -1.68,1.92c-0.512,-0.095 -0.988,0.447 -1.32,0.72c-2.442,2.013 -4.632,4.573 -7.319,6.6c-2.912,2.195 -5.979,4.426 -9.36,6.48c-0.784,0.477 -1.526,1.094 -2.4,1.56c-1.658,0.887 -3.386,1.868 -5.28,2.64c-0.913,0.373 -1.862,0.875 -2.76,1.2c-0.979,0.354 -2.155,0.461 -3.24,0.72c-10.304,2.457 -16.473,-4.736 -16.68,-14.76c-0.779,-0.073 -1.254,0.736 -1.68,1.2c-0.55,0.599 -1.065,0.937 -1.68,1.44c-1.089,0.894 -2.034,2.039 -3.12,3c-3.139,2.779 -6.501,5.782 -10.08,8.28c-1.957,1.366 -4.63,2.708 -7.08,3.72c-0.156,0.065 -0.331,0.188 -0.48,0.24c-1.577,0.549 -3.648,1.4 -5.4,1.44c-6.69,0.151 -8.622,-6.445 -8.64,-13.56c-0.01,-4.082 1.318,-8.325 1.44,-12c-0.532,-0.095 -0.511,0.549 -0.72,0.84c-0.422,0.589 -0.826,1.211 -1.32,1.92c-0.179,0.256 -0.647,0.702 -0.96,1.08c-1.06,1.281 -2.081,2.628 -3.12,3.96c-1.025,1.314 -2.204,2.494 -3.36,3.72c-1.148,1.218 -2.212,2.528 -3.36,3.72c-2.211,2.295 -4.777,4.359 -7.68,6.48c-1.273,0.93 -2.679,1.909 -4.32,2.76c-2.41,1.25 -4.465,2.475 -8.28,2.04c-1.251,-0.143 -3.146,-1.038 -4.2,-1.68c-4.787,-2.916 -7.9,-8.529 -7.92,-16.32c-0.011,-4.38 1.048,-8.543 1.68,-12.6c0.659,-4.231 1.632,-8.21 2.16,-12.12c-0.351,-0.444 -0.763,0.2 -0.96,0.36c-0.878,0.715 -1.736,1.674 -2.64,2.52c-1.176,1.101 -2.512,2.157 -3.72,3.24c-1.202,1.077 -2.527,2.04 -3.84,3.12c-3.096,2.549 -6.3,5.085 -9.72,7.56c-2.401,1.737 -5.052,3.943 -8.28,5.64c-1.273,0.669 -3.374,1.245 -3.6,-0.6c-0.231,-1.892 2.971,-3.118 4.32,-4.2c1.18,-0.947 2.228,-1.982 3.48,-2.88c0.227,-0.163 0.504,-0.218 0.72,-0.36c0.189,-0.125 0.291,-0.349 0.48,-0.48c3.232,-2.241 6.592,-5.02 9.48,-7.44c3.126,-2.62 6.089,-5.25 8.88,-8.04c0.696,-0.697 1.55,-1.225 2.28,-1.92c0.697,-0.665 1.37,-1.446 2.04,-2.16c1.353,-1.442 2.818,-2.869 3.6,-4.8c1.554,-0.966 2.279,-2.761 3.48,-4.08c2.311,0.123 4.357,-0.144 6.48,0.24c-0.197,3.629 -0.971,7.153 -1.68,10.68c-1.357,6.747 -2.77,13.682 -4.08,20.64c-0.328,1.741 -0.534,3.572 -0.72,5.521c-0.299,3.126 -0.538,6.268 0.24,9c0.9,3.162 3.594,5.801 7.68,4.8c2.661,-0.652 4.63,-1.704 6.6,-3.24c2.269,-1.77 4.864,-3.904 6.84,-5.88c3.568,-3.568 6.525,-7.21 9.36,-10.92c2.97,-3.886 5.774,-8.19 6.72,-13.56c1.007,-5.721 1.408,-11.798 2.76,-17.52c2.391,-0.015 5.202,-0.24 8.28,0c-0.591,6.404 -1.899,13.215 -2.88,19.8c-1.309,8.787 -2.817,16.013 -2.88,25.56c-0.024,3.635 1.467,6.171 6.12,5.16c1.128,-0.245 2.338,-1.131 3.6,-1.8c4.66,-2.468 8.266,-5.674 12,-9.12c0.913,-0.842 1.698,-1.822 2.64,-2.64c1.9,-1.651 3.913,-3.33 5.28,-5.28c0.822,-1.172 1.324,-2.65 1.92,-3.96c1.269,-2.786 2.419,-5.278 4.08,-7.68c1.629,-2.356 3.318,-4.339 5.16,-6.6c1.69,-2.075 3.672,-4.156 5.88,-5.88c0.574,-0.449 1.15,-0.865 1.68,-1.32c0.521,-0.447 0.929,-1.064 1.44,-1.44c0.448,-0.329 1.075,-0.515 1.56,-0.84c2.223,-1.491 4.443,-3.305 6.959,-4.68c1.965,-1.073 3.994,-2.091 6.12,-3.12c2.015,-0.976 3.97,-2.146 6.48,-2.88c1.265,-0.37 2.862,-0.726 3.96,-0.6c2.881,0.33 4.915,3.999 3.6,7.08c-0.227,0.531 -1.092,1.452 -1.8,1.68c-1.304,0.42 -3.79,-0.08 -5.28,0.24c-2.12,0.455 -4.415,1.426 -6.6,2.52c-0.511,0.256 -1.031,0.426 -1.56,0.72c-0.447,0.249 -0.848,0.707 -1.32,0.96c-1.034,0.554 -2.114,0.932 -3,1.56c-3.548,2.518 -6.958,5.335 -9.72,8.4c-1.42,1.577 -2.938,3.108 -4.32,4.8c-1.284,1.571 -2.39,3.577 -3.48,5.52c-1.716,3.059 -4.055,10.339 -1.32,14.4c1.731,2.57 5.002,3.549 8.88,3.36c3.622,-0.176 6.632,-1.785 9,-3.12c5.165,-2.913 9.766,-6.134 14.16,-10.2c1.945,-1.336 3.349,-2.978 4.8,-4.44c2.2,-2.218 4.45,-4.629 6.72,-6.96c2.209,-2.269 4.318,-4.601 6.36,-7.32c2.085,-2.777 3.437,-5.321 4.319,-9.36c1.022,-4.67 1.993,-10.277 3.24,-15c0.335,-1.268 0.417,-2.588 0.72,-3.84c2.291,-9.447 4.724,-19.45 7.801,-28.68c1.453,-4.36 3.316,-8.905 5.279,-12.96c1.7,-3.511 5.168,-7.819 8.761,-9.48c0.817,-0.378 1.953,-0.75 2.76,-0.84c0.8,-0.089 2.366,-0.149 3.24,0.12c0.437,0.135 0.948,0.709 1.439,1.08c1.591,1.201 3.19,3.226 3.48,5.64c0.466,3.894 -1.066,8.239 -2.04,11.16c-2.105,6.315 -5.537,12.288 -8.4,17.88c-1.538,3.005 -3.087,5.778 -4.8,8.28c-2.831,5.689 -6.687,10.776 -9.48,16.8c-2.779,5.999 -3.971,13.064 -5.757,20.398l0,0Zm6.48,-29.28c0.887,-1.306 1.723,-2.477 2.52,-3.84c1.014,-1.733 1.974,-3.562 3,-5.4c0.979,-1.753 2.15,-3.436 3.12,-5.28c2.885,-5.487 5.978,-10.814 8.4,-16.8c1.672,-4.131 3.559,-8.172 3.96,-12.84c0.24,-2.798 -0.267,-5.039 -2.641,-4.92c-0.561,0.634 -1.484,0.625 -2.159,1.08c-1.237,0.833 -2.488,3.062 -3.48,4.68c-1.154,1.883 -2.119,3.653 -2.88,5.4c-1.771,4.063 -3.184,8.106 -4.32,12.24c-2.498,9.092 -4.947,17.978 -6.359,26.64c0.62,0.133 0.631,-0.654 0.839,-0.96l0,0Zm148.92,5.4c3.853,-3.853 6.733,-8.384 9.72,-13.08c2.476,-3.893 4.72,-8.383 6.84,-12.6c0.754,-1.499 1.737,-2.893 2.28,-4.32c0.277,-0.728 0.204,-1.536 0.479,-2.16c0.188,-0.423 0.684,-0.772 0.96,-1.32c0.535,-1.058 1.051,-2.76 1.561,-4.32c0.515,-1.575 1.206,-3.191 1.439,-4.44c0.251,-1.337 0.417,-3.719 -0.239,-4.8c-1.641,-2.703 -5.02,1.534 -5.88,2.76c-1.81,2.578 -3.328,5.346 -4.681,8.28c-2.29,4.969 -4.463,10.082 -6.479,15c-0.405,0.988 -0.953,1.8 -1.32,2.76c-1.993,5.211 -3.877,10.609 -5.52,16.08c-0.341,1.135 -0.773,2.373 -0.721,3.6c0.68,-0.248 1.06,-0.939 1.561,-1.44Zm-65.28,27.24c4.245,-3.2 8.366,-6.447 12.24,-10.08c1.503,-1.41 3.398,-3.171 3.96,-5.04c0.834,-2.779 -0.604,-4.664 -3.24,-4.56c-1.994,0.078 -3.223,0.839 -4.68,1.68c-6.29,3.631 -9.97,11.632 -11.04,19.68c1.052,-0.27 1.898,-1.03 2.76,-1.68l0,0Z" style="fill:#fff;stroke:#fbfdff;stroke-width:1px;"/><path d="M60.624,18.488c0.102,-0.022 0.113,0.047 0.12,0.12c0.102,-0.022 0.113,0.047 0.12,0.12c0,33.832 0,69.402 0,103.68c0,7.176 -0.597,15.38 1.2,20.76c-2.978,3.076 -6.633,5.711 -10.08,8.4c-1.658,1.293 -3.375,2.629 -5.28,3.84c-0.283,0.18 -0.647,0.678 -1.08,0.48c-0.462,-17.923 0.707,-37.112 2.04,-54.24c1.376,-17.69 3.615,-34.146 6.36,-51c0.857,-5.263 1.781,-10.615 2.88,-16.2c0.721,-3.662 1.58,-7.876 2.52,-11.88c0.328,-1.396 0.428,-3.158 0.96,-3.84c0.03,-0.13 0.239,-0.081 0.24,-0.24l0,0Z" style="fill:#fff;stroke:#fbfdff;stroke-width:1px;stroke-miterlimit:1.41421;"/><path d="M546.624,19.328c-0.268,1.297 -0.265,2.1 -0.36,3.6c-0.009,0.148 -0.217,0.268 -0.24,0.48c-0.009,0.084 0.188,0.069 0.12,0.36c-0.374,1.592 -1.466,3.454 -3.12,3.96c-3.749,1.146 -4.597,-4.022 -1.8,-6.48c1.604,-0.276 1.948,-1.812 3.48,-2.16c0.042,-0.158 0.211,-0.189 0.24,-0.36c0.608,0.152 0.908,0.612 1.68,0.6l0,0Z" style="fill:#fff;stroke:#fbfdff;stroke-width:1px;stroke-miterlimit:1.41421;"/><path d="M30.744,174.008c-0.3,-2.853 2.482,-4.354 4.32,-5.52c1.502,-0.952 3.037,-2.025 4.56,-3c2.449,-1.566 5.18,-2.995 7.8,-4.56c2.104,-1.257 4.089,-2.708 6.12,-3.84c2.144,-1.195 4.367,-2.321 6.48,-3.6c10.275,-6.217 21.149,-12.144 31.68,-18.24c0.521,-0.301 1.04,-0.637 1.56,-0.96c3.417,-2.121 7.025,-4.619 10.44,-6.96c1.835,-1.258 3.683,-2.854 5.64,-4.44c2.84,-2.3 5.129,-4.615 7.2,-7.8c1.836,-2.824 3.81,-6.58 4.44,-10.44c1.081,-6.621 -0.882,-11.888 -3.48,-15.6c-5.372,-7.675 -16.236,-9.384 -28.2,-10.2c-3.022,-0.206 -6.166,-0.324 -9.12,-0.6c-4.332,-0.405 -8.97,-1.039 -10.56,-4.44c-0.653,-1.397 -0.9,-4.417 -0.36,-6.12c1.463,-4.618 5.991,-7.904 9.72,-10.92c3.871,-3.131 8.336,-5.938 11.76,-8.88c2.768,-2.38 5.65,-4.598 7.92,-7.56c3.453,-4.506 7.217,-10.865 7.2,-18.24c-0.009,-3.753 -1.037,-6.834 -2.4,-9.24c-2.688,-4.745 -8.384,-6.711 -15.84,-5.88c-6.319,0.705 -12.566,2.016 -17.4,3.72c-5.404,1.905 -10.802,3.877 -15.72,6.24c-3.598,1.729 -7.548,3.311 -11.4,5.04c-1.231,0.553 -2.873,1.386 -3.96,0c-0.342,-1.553 0.87,-2.314 1.8,-2.88c2.879,-1.75 6.301,-3.151 9.36,-4.68c4.118,-2.058 8.407,-4.143 12.72,-5.88c4.501,-1.812 8.867,-3.795 13.56,-5.16c2.477,-0.72 4.944,-1.315 7.56,-1.8c6.482,-1.202 14.249,-1.583 20.76,-0.12c7.662,1.722 13.735,4.452 16.8,10.92c0.504,1.064 1.106,2.227 1.32,3.36c0.732,3.892 -0.384,7.936 -1.8,11.04c-1.472,3.227 -3.102,6.004 -4.92,8.4c-3.97,5.231 -8.796,8.786 -14.28,12.36c-4.941,3.584 -10.882,6.936 -16.44,10.2c-2.698,1.584 -5.085,3.057 -8.16,5.16c-1.116,0.763 -2.405,1.805 -3.6,3c-1.963,1.963 -3.907,4.702 -0.72,6.72c2.377,1.505 7.793,1.676 11.52,1.32c2.538,-0.243 5.469,-0.453 7.92,-0.72c2.652,-0.289 5.276,-0.591 7.92,-0.72c2.724,-0.133 5.655,-0.526 8.52,-0.36c2.753,0.16 5.437,0.518 7.8,1.08c4.719,1.124 8.985,2.561 12.24,5.28c6.124,5.117 11.054,15.134 8.16,25.44c-1.213,4.319 -3.762,8.044 -6.48,11.28c-4.157,4.948 -8.854,8.741 -13.8,12.72c-1.645,1.324 -3.523,2.381 -5.28,3.6c-1.749,1.214 -3.51,2.42 -5.28,3.6c-1.771,1.181 -3.561,2.396 -5.4,3.48c-7.389,4.352 -15.226,8.116 -23.04,12.36c-3.839,2.085 -7.824,3.983 -11.64,6.12c-3.855,2.159 -7.878,3.914 -11.76,6c-5.768,3.101 -11.483,6.175 -17.64,9c-0.95,0.436 -2.059,0.878 -3.12,1.32c-0.855,0.356 -1.963,1.423 -3,0.6l0,0Z" style="fill:#fff;stroke:#fbfdff;stroke-width:1px;"/><path d="M536.184,160.448c-0.072,2.111 0.292,2.987 -0.12,4.44c-0.141,0.598 -0.939,0.5 -1.319,0.6c-1.115,0.293 -2.823,0.616 -4.44,0.96c-5.659,1.203 -11.998,2.5 -18.12,3.72c-8.067,1.607 -16.011,3.511 -23.76,5.04c-4.078,0.804 -8.185,1.753 -12.24,2.76c-3.905,0.97 -7.837,1.763 -11.64,2.76c-1.88,0.493 -3.768,1.113 -5.64,1.56c-2.007,0.478 -3.945,0.972 -5.881,1.56c-1.885,0.572 -3.772,1.272 -5.64,1.8c-9.155,2.586 -18.322,6.238 -27.36,9.72c-3.531,1.361 -7.038,2.864 -10.56,4.32c-3.524,1.457 -7.051,2.923 -10.44,4.44c-6.278,2.81 -12.56,6.108 -18.239,9.72c-0.381,0.241 -0.812,0.367 -1.2,0.6c-1.46,0.872 -2.815,2.141 -4.2,3.24c-0.684,0.543 -1.477,0.989 -2.16,1.56c-0.68,0.567 -1.213,1.309 -1.92,1.8c-0.766,0.531 -1.565,0.856 -2.28,1.44c-0.639,0.522 -1.204,1.174 -1.92,1.8c-1.396,1.224 -3.338,2.646 -3.479,4.2c-0.156,1.707 1.307,3.623 2.52,4.68c1.376,1.198 2.822,2.304 4.2,2.88c3.418,1.429 7.509,2.335 11.76,1.92c3.956,-0.386 7.851,-1.423 11.28,-2.52c3.623,-1.158 7.165,-2.373 10.44,-3.72c3.313,-1.363 6.765,-2.649 10.199,-4.08c2.511,-1.046 5.085,-1.856 7.681,-3c0.413,-0.182 0.811,-0.442 1.2,-0.6c6.976,-2.836 14.27,-5.808 21.359,-8.64c3.371,-1.346 6.815,-2.514 10.2,-3.84c3.396,-1.33 6.801,-2.681 10.2,-3.96c6.837,-2.572 13.47,-5.511 20.16,-8.28c6.708,-2.776 13.46,-5.379 20.159,-8.28c6.647,-2.878 13.573,-5.263 20.4,-7.92c1.269,-0.672 2.689,-1.09 4.08,-1.68c1.185,-0.502 2.59,-1.138 3.96,-1.68c0.846,-0.335 1.732,-0.822 2.64,-0.84c0.47,1.128 0.31,2.55 0.24,3.96c-0.072,1.482 0.199,2.661 -0.12,3.96c-8.399,3.515 -17.065,6.771 -25.319,10.08c-4.24,1.7 -8.412,3.314 -12.721,5.04c-2.856,1.145 -5.71,2.146 -8.52,3.36c-3.8,1.643 -7.601,3.199 -11.521,4.8c-1.532,0.626 -3.546,1.37 -5.279,2.04c-1.401,0.542 -2.693,1.247 -4.08,1.8c-8.527,3.401 -17.064,6.696 -25.681,9.96c-0.37,0.141 -0.687,0.335 -1.08,0.48c-2.368,0.876 -4.821,2.061 -7.199,3c-2.825,1.116 -5.709,2.17 -8.521,3.36c-2.756,1.167 -5.565,2.257 -8.28,3.48c-2.762,1.244 -5.594,2.314 -8.399,3.48c-2.107,0.875 -4.189,1.512 -6.48,2.4c-0.688,0.267 -1.356,0.775 -2.159,0.72c-3.848,1.603 -7.704,3.024 -11.761,4.08c-4.192,1.092 -8.521,1.831 -13.56,1.44c-7.229,-0.56 -11.72,-3.921 -17.28,-6.48c-0.803,-0.37 -1.736,-0.866 -2.64,-1.32c-0.853,-0.428 -1.947,-1.143 -2.641,-1.2c-0.687,-0.057 -2.065,0.837 -3,1.32c-2.931,1.514 -6.384,3.239 -9,4.56c-4.233,2.138 -8.3,3.8 -11.88,6.24c0.773,1.037 2.16,1.065 3.24,1.44c0.298,0.104 0.541,0.264 0.84,0.36c5.438,1.756 10.86,3.583 16.44,5.52c6.764,2.348 13.625,5.183 20.52,7.56c1.738,0.599 3.451,1.223 5.28,1.8c1.515,0.478 3.423,1.33 4.8,1.92c1.029,0.441 2.219,0.77 3.24,1.08c2.492,0.757 4.905,1.371 7.439,1.68c2.873,0.351 5.778,0.454 8.881,0.24c5.093,-0.351 9.834,-2.059 14.399,-3.72c4.499,-1.636 8.574,-3.896 12.72,-6c3.03,-1.537 6.119,-3.205 9,-5.04c0.933,-0.593 2.016,-1.075 3,-1.56c4.114,-2.025 8.19,-4.232 12.24,-6.48c1.53,-0.849 3.096,-1.573 4.681,-2.4c0.501,-0.261 1.076,-0.443 1.56,-0.72c0.983,-0.563 1.863,-1.288 2.88,-1.8c1.035,-0.521 2.175,-0.919 3.24,-1.44c4.1,-2.003 8.091,-4.344 12.12,-6.6c3.993,-2.236 8.149,-4.273 12,-6.6c3.923,-2.371 8.014,-4.399 12,-6.72c3.938,-2.293 8.104,-4.306 12.12,-6.48c1.001,-0.542 1.998,-1.152 3,-1.68c2.04,-1.076 4.037,-2.188 6.12,-3.24c4.062,-2.051 8.095,-4.343 12.119,-6.6c0.985,-0.552 1.951,-1.321 3.12,-1.44c0.458,3.067 0.255,7.419 0.12,10.68c-1.113,0.391 -2.666,-0.106 -4.08,0.12c-0.94,0.151 -2.242,0.97 -3.359,1.56c-5.432,2.869 -10.51,5.821 -15.96,8.52c-1.078,0.534 -2.182,1.084 -3.24,1.68c-0.962,0.542 -2.278,0.91 -2.76,2.04c0.646,0.615 1.595,0.423 2.399,0.48c5.979,0.419 12.001,1.001 17.521,1.56c6.801,0.688 13.401,0.914 20.279,1.8c-0.257,1.015 -1.374,1.498 -2.159,2.04c-1.604,1.105 -3.078,2.012 -4.921,3.24c-0.827,0.552 -1.774,1.423 -2.52,1.56c-0.698,0.128 -1.773,-0.142 -2.76,-0.24c-4.539,-0.45 -9.208,-0.809 -13.8,-1.2c-1.864,-0.159 -3.627,-0.34 -5.28,-0.48c-6.088,-0.514 -12.572,-1.174 -19.08,-1.68c-0.887,-0.069 -1.77,-0.317 -2.521,-0.24c-1.146,0.118 -2.478,0.91 -3.72,1.56c-1.127,0.59 -2.288,1.328 -3.36,1.92c-6.472,3.572 -12.104,6.786 -18.479,10.44c-0.479,0.275 -1.333,0.362 -1.44,1.08c0.426,0.779 1.361,0.424 2.04,0.48c5.592,0.46 11.631,1.28 17.04,1.68c3.231,0.239 6.447,0.633 9.721,0.96c3.334,0.333 6.725,0.486 10.08,0.84c6.45,0.68 13.005,1.064 19.56,1.8c3.22,0.361 6.488,0.76 9.72,0.96c3.312,0.205 6.625,0.471 9.84,1.08c-0.077,0.65 -0.842,0.844 -1.319,1.08c-2.516,1.242 -5.016,2.407 -7.8,3.72c-1.057,0.498 -2.166,1.281 -3.12,1.44c-1.36,0.227 -3.372,-0.212 -5.16,-0.36c-1.691,-0.14 -3.556,-0.227 -5.16,-0.36c-6.328,-0.524 -13.046,-1.163 -19.8,-1.8c-6.477,-0.61 -13.017,-1.09 -19.561,-1.8c-2.482,-0.27 -4.986,-0.511 -7.56,-0.72c-5.087,-0.414 -11.881,-1.002 -17.4,-1.44c-1.819,-0.145 -3.552,-0.601 -5.16,-0.36c-0.896,0.134 -1.734,0.802 -2.76,1.32c-0.926,0.468 -1.95,0.894 -2.76,1.32c-8.938,4.707 -17.274,9.847 -26.4,14.04c-2.796,1.285 -5.49,2.442 -8.76,3.48c-0.928,0.295 -2.03,0.381 -2.76,1.2c0.958,0.865 2.316,1.038 3.479,1.44c2.194,0.757 4.511,1.65 6.96,2.52c1.168,0.415 2.314,0.687 3.48,1.08c1.119,0.378 2.237,0.932 3.36,1.32c8.207,2.834 16.76,5.927 25.199,8.76c1.156,0.388 2.325,0.869 3.48,1.2c0.656,0.188 1.298,0.223 1.92,0.48c0.579,0.239 1.076,0.523 1.68,0.72c4.865,1.584 9.736,3.063 14.521,4.8c7.126,2.588 14.181,5.161 21.24,7.68c1.223,0.437 2.501,0.741 3.72,1.2c5.722,2.152 12.06,4.203 18,6.24c1.152,0.395 2.303,0.937 3.479,1.319c1.09,0.355 2.408,0.404 3.24,1.32c0.072,0.339 -0.934,0.633 -1.32,0.72c-0.358,0.081 -0.718,0.052 -1.079,0.12c-2.582,0.49 -5.777,1.063 -8.641,1.561c-2.121,0.367 -3.949,0.612 -5.76,0c-1.255,-0.425 -2.789,-0.936 -4.32,-1.44c-1.988,-0.656 -4,-1.547 -5.88,-2.16c-6.356,-2.073 -11.795,-4.244 -17.64,-6.24c-1.935,-0.66 -3.926,-1.257 -5.88,-1.92c-0.981,-0.333 -1.912,-0.863 -2.88,-1.2c-2.9,-1.008 -5.939,-1.922 -9,-2.879c-7.885,-2.467 -15.851,-5.452 -23.521,-8.04c-4.018,-1.356 -7.926,-2.77 -11.88,-4.2c-3.886,-1.406 -7.8,-2.895 -11.76,-4.2c-3.826,-1.261 -7.782,-2.733 -11.761,-4.08c-5.938,-2.011 -12.128,-3.856 -17.76,-6c-0.973,-0.371 -2.005,-0.746 -3,-1.08c-0.995,-0.335 -1.907,-0.747 -2.88,-1.08c-3.944,-1.35 -7.96,-2.503 -11.76,-3.96c-7.233,-2.772 -14.564,-5.393 -22.2,-7.92c-0.232,-0.077 -0.478,-0.144 -0.72,-0.24c-1.883,-0.748 -4.537,-1.531 -6.72,-2.28c-4.868,-1.669 -9.793,-3.378 -14.881,-5.16c-1.108,-0.388 -2.323,-0.956 -3,-0.96c-0.896,-0.005 -2.052,0.814 -3.119,1.32c-5.048,2.393 -9.482,4.966 -14.28,7.44c-1.908,0.984 -3.897,1.761 -5.521,3.12c0.537,0.866 1.686,1.013 2.521,1.32c13.347,4.904 27.648,9.673 41.52,14.4c7.432,2.533 14.964,4.852 22.32,7.56c10.129,3.729 19.912,7.542 30.479,10.8c0.298,0.092 0.332,-0.009 0.601,0.12c2.163,1.037 5.07,1.809 7.68,2.64c10.823,3.448 22.145,7.734 33.24,11.64c0.931,0.327 1.809,0.751 2.76,1.08c1.889,0.653 3.772,1.298 5.641,1.92c2.677,0.893 5.482,1.992 8.279,2.88c6.944,2.205 14.339,4.715 20.76,7.2c0.397,0.153 0.974,0.133 1.2,0.601c0.158,0.324 -0.51,0.456 -0.6,0.479c-0.93,0.238 -2.221,0.092 -3.36,0.24c-2.726,0.354 -5.545,0.731 -8.399,0.96c-1.56,0.125 -3.199,0.642 -4.801,0.359c-1.259,-0.222 -2.694,-0.833 -4.079,-1.319c-9.443,-3.318 -19.545,-6.432 -28.561,-9.96c-5.491,-2.149 -11,-3.855 -16.439,-5.76c-4.101,-1.437 -8.297,-2.662 -12.36,-4.08c-0.683,-0.238 -1.347,-0.505 -2.04,-0.721c-0.728,-0.226 -1.553,-0.24 -2.28,-0.479c-0.5,-0.165 -1.023,-0.511 -1.56,-0.72c-3.576,-1.396 -7.681,-2.607 -11.4,-3.96c-4.37,-1.589 -8.79,-2.932 -13.08,-4.56c-10.688,-4.055 -21.797,-7.671 -32.52,-11.4c-1.061,-0.369 -2.166,-0.576 -3.24,-0.96c-9.709,-3.471 -19.185,-6.816 -29.28,-10.32c-2.928,-1.016 -6.438,-2.412 -9.72,-3.6c-1.249,-0.452 -2.487,-1.086 -3.24,-1.08c-0.891,0.007 -2.203,0.713 -3.359,1.2c-7.313,3.077 -14.737,6.561 -22.08,9.72c-8.771,3.773 -17.617,6.741 -29.88,5.76c0.089,0.85 1.274,1.144 2.04,1.68c0.742,0.52 1.402,1.176 2.16,1.68c1.569,1.043 3.208,2.013 4.8,3c3.966,2.458 7.747,5.209 11.76,7.68c0.591,0.364 1.214,0.559 1.92,0.96c0.198,0.113 0.277,0.345 0.48,0.48c1.57,1.044 3.229,1.863 4.8,2.88c9.312,6.03 19.098,11.904 28.68,17.761c4.785,2.925 9.271,6.221 14.04,9.239c0.757,0.479 1.53,1.032 2.28,1.561c0.711,0.501 1.757,0.862 2.04,1.8c-2.381,0.474 -5.509,0.521 -8.88,0.72c-1.053,0.062 -2.124,0.402 -2.881,0.24c-0.573,-0.123 -1.561,-0.948 -2.52,-1.56c-11.917,-7.599 -24.707,-15.285 -36.48,-22.92c-12.903,-8.368 -25.283,-16.727 -38.52,-24.84c-6.409,-3.928 -12.868,-8.178 -19.44,-12.24c-3.249,-2.008 -6.504,-4.061 -9.6,-6.24c-3.162,-2.226 -6.362,-4.24 -9.48,-6.36c-6.046,-4.111 -12.456,-8.388 -19.08,-12.6c-0.813,-0.518 -1.683,-0.914 -2.52,-1.44c-4.781,-3.01 -9.488,-6.02 -14.64,-9.12c-0.983,-0.592 -1.84,-1.46 -2.4,-1.56c-0.793,-0.142 -2.085,0.149 -3.12,0.24c-7.425,0.648 -15.463,1.685 -22.08,2.52c-0.234,0.622 0.555,0.744 0.84,0.96c5.669,4.302 12.193,8.031 18.24,12.12c6.494,4.391 13.364,8.187 19.92,12.48c6.528,4.276 13.179,8.408 19.68,12.72c6.52,4.324 13.015,8.601 19.56,12.84c3.271,2.118 6.405,4.474 9.72,6.48c3.368,2.038 6.673,4.125 10.08,6.12c3.363,1.97 6.712,4.053 9.96,6.24c4.868,3.278 9.819,6.364 14.76,9.601c0.809,0.529 1.588,1.149 2.4,1.68c1.603,1.047 3.141,2.169 4.8,3.24c0.817,0.527 1.598,1.121 2.4,1.68c3.149,2.192 6.454,4.24 9.84,6.36c4.06,2.542 8.211,5.207 12.36,7.92c0.337,0.22 0.817,0.533 1.2,0.84c0.242,0.193 1.004,0.415 0.72,0.96c-4.377,0.475 -7.657,0.582 -11.88,0.84c-6.623,-4.141 -13.037,-8.532 -19.56,-12.84c-6.488,-4.285 -12.901,-8.765 -19.56,-12.84c-6.668,-4.081 -13.373,-8.186 -20.04,-12.36c-6.607,-4.136 -13.214,-8.305 -19.68,-12.72c-3.969,-2.71 -8.057,-5.462 -12.12,-8.16c-2.022,-1.343 -4.073,-2.634 -6.24,-3.96c-5.249,-3.213 -10.84,-6.767 -16.2,-10.08c-1.643,-1.016 -3.33,-2.048 -4.92,-3.12c-6.286,-4.239 -13.05,-8.311 -19.68,-12.72c-1.133,-0.754 -2.339,-1.65 -3.6,-2.52c-4.339,-2.996 -8.765,-5.758 -13.44,-8.88c-0.945,-0.631 -1.877,-1.474 -2.4,-1.56c-0.81,-0.133 -2.748,0.266 -3.6,0.36c-3.77,0.414 -7.488,0.849 -11.16,1.08c-7.385,0.464 -15.137,0.953 -22.2,-0.72c-2.21,-0.523 -4.181,-1.242 -6,-2.28c-1.755,-1.001 -3.366,-2.218 -5.16,-3.24c-0.891,-0.507 -1.829,-0.937 -2.76,-1.44c-7.837,-4.231 -15.998,-9.233 -24,-13.44c-6.126,-3.221 -12.521,-6.904 -18.72,-10.56c-0.881,-0.52 -2.055,-1.067 -2.52,-1.56c-0.04,-0.042 -0.222,-0.207 -0.24,-0.24c-0.839,-1.532 -1.583,-3.303 -2.4,-5.04c-0.787,-1.674 -1.674,-3.419 -2.16,-5.28c3.849,1.483 7.285,3.729 10.92,5.64c1.791,0.941 3.55,2.018 5.4,2.88c5.558,2.59 10.782,5.399 16.08,8.28c3.544,1.928 7.049,3.975 10.68,5.76c7.268,3.572 14.074,8.071 21.72,11.16c4.288,1.732 7.257,3.138 12.84,3.12c2.5,-0.008 5.115,-0.309 7.68,-0.6c1.104,-0.125 2.229,-0.101 3.36,-0.24c3.534,-0.434 7.142,-0.907 10.8,-1.32c2.459,-0.277 4.987,-0.413 7.44,-0.72c14.257,-1.786 29.387,-3.221 44.04,-4.8c14.113,-1.52 29.096,-3.408 43.68,-4.92c3.573,-0.371 7.585,-0.748 11.16,-1.2c0.588,-0.074 1.221,-0.182 1.8,-0.24c0.586,-0.059 1.29,0.002 1.68,-0.12c1.041,-0.325 2.38,-2.074 3.36,-2.76c0.416,-0.291 0.95,-0.548 1.44,-0.84c2.259,-1.346 4.76,-2.89 7.2,-4.2c0.952,-0.511 2.048,-0.872 2.76,-1.68c-0.522,-0.628 -1.721,-0.664 -2.76,-0.84c-5.368,-0.909 -11.87,-1.995 -18.12,-2.4c-9.284,-0.602 -19.701,-1.32 -29.52,-1.32c-8.337,0 -17.131,0.027 -26.04,0.36c-9.018,0.337 -18.122,0.417 -27,0.84c-8.669,0.413 -17.369,0.464 -26.76,0.84c-4.32,0.173 -8.537,0.37 -12.6,0.24c-2.229,-0.071 -4.098,-0.24 -6,-0.84c-1.744,-0.55 -3.385,-1.221 -4.92,-2.04c-3.076,-1.641 -6.121,-3.3 -9,-5.04c-4.246,-2.565 -8.166,-5.221 -12.72,-7.56c-0.18,-0.092 -0.299,-0.261 -0.48,-0.36c-1.515,-0.83 -3.155,-1.455 -4.68,-2.28c-0.393,-0.212 -0.692,-0.532 -1.08,-0.72c-2.686,-1.308 -5.624,-2.317 -8.16,-4.08c0.558,-0.67 1.479,-0.947 2.28,-1.32c1.699,-0.791 3.747,-1.837 5.52,-2.64c0.181,-0.082 0.372,-0.063 0.48,-0.12c3.199,-1.688 7.157,-3.224 10.68,-4.8c6.217,-2.782 12.364,-6.569 19.08,-8.76c4.471,-1.458 9.38,-2.685 14.52,-3.48c5.226,-0.809 10.586,-1.277 16.08,-2.04c2.677,-0.372 5.502,-0.359 8.28,-0.48c14.165,-0.618 29.294,-0.058 43.44,1.56c5.665,0.647 11.19,0.881 16.44,1.68c7.721,1.174 15.058,2.992 22.56,4.44c1.322,0.255 2.676,0.408 3.96,0.72c5.945,1.445 12.196,3.15 18.36,4.68c2.428,0.603 4.872,1.396 7.32,2.04c0.537,0.141 1.159,0.295 1.68,0.479c0.582,0.207 1.108,0.42 1.68,0.6c8.049,2.537 15.85,5.589 23.64,8.64c5.399,2.115 10.961,4.155 16.8,6.36c1.321,0.499 2.505,1.182 3.36,1.2c1.178,0.025 2.857,-0.679 4.2,-0.96c0.424,-0.089 0.899,-0.023 1.32,-0.12c9.542,-2.192 19.468,-4.868 29.04,-6.84c11.869,-2.445 24.214,-4.241 37.32,-5.16c1.541,-0.108 3.129,-0.333 4.68,-0.48c1.698,-0.162 3.356,-0.165 5.04,-0.36c1.642,-0.19 3.354,-0.245 5.04,-0.36c1.749,-0.12 3.527,-0.086 5.28,-0.12c16.768,-0.331 34.052,-0.334 51.479,0.12c1.666,0.043 3.376,0.036 5.04,0.12c1.637,0.083 3.28,0.355 4.8,0.24c2.163,-0.164 4.465,-1.136 6.721,-1.92c2.161,-0.752 4.32,-1.485 6.359,-2.16c2.168,-0.717 4.271,-1.445 6.36,-2.04c2.247,-0.64 4.469,-1.188 6.72,-1.8c4.155,-1.13 8.611,-2.501 13.08,-3.6c4.515,-1.11 9.23,-1.871 13.8,-3c4.518,-1.117 9.301,-1.928 14.04,-2.88c4.488,-0.902 8.991,-1.958 13.32,-3c4.15,-1 9.105,-1.815 13.56,-2.88c3.322,-0.794 6.964,-1.333 10.44,-2.16c1.154,-0.275 2.279,-0.695 3.24,-0.72c0.185,-0.005 0.292,-0.181 0.479,-0.12c0.572,0.185 1.135,0.873 1.92,1.32c0.823,0.463 1.663,0.654 2.046,1.198l0,0Zm-282.36,39.24c-2.277,-1.01 -4.537,-2.039 -6.84,-3c-1.201,-0.501 -2.49,-0.855 -3.72,-1.32c-9.586,-3.625 -19.434,-6.999 -29.52,-9.84c-4.513,-1.271 -9.418,-2.229 -13.44,-3.36c-0.609,-0.171 -1.204,-0.591 -1.8,-0.72c-0.667,-0.144 -1.636,0.194 -2.04,-0.24c-0.135,-0.146 0.051,-0.377 -0.36,-0.48c-0.598,0.57 -1.33,0.005 -1.92,-0.12c-0.756,-0.16 -1.539,-0.209 -2.28,-0.36c-6.76,-1.377 -14.071,-3.124 -21.48,-4.08c-1.882,-0.243 -4.021,-0.727 -5.64,-0.84c-1.047,-0.073 -1.678,-0.197 -2.16,-0.24c-2.225,-0.198 -3.912,-0.376 -5.88,-0.6c-1.589,-0.181 -3.197,-0.229 -4.8,-0.36c-6.307,-0.515 -12.659,-0.656 -19.2,-0.96c-3.368,-0.157 -6.831,-0.116 -10.32,-0.12c-4.743,-0.005 -10.454,-0.165 -15.36,0.12c-4.815,0.279 -9.465,0.698 -14.04,1.2c-4.371,0.48 -8.725,0.994 -12.48,2.16c-1.865,0.58 -3.674,1.33 -5.4,2.16c-3.427,1.649 -5.754,3.197 -7.32,6.6c-0.658,1.431 -1.35,3.329 -1.44,4.8c-0.007,0.113 -0.012,0.248 0,0.36c0.438,3.952 1.65,7.068 3.96,9.36c1.618,1.605 3.802,2.665 6.12,3.6c1.11,0.448 2.19,0.966 3.24,1.2c6.302,1.407 14.428,0.534 21.96,0.36c4.302,-0.099 8.786,-0.335 12.36,-0.48c1.471,-0.059 2.984,0.016 4.32,-0.12c0.685,-0.069 1.28,-0.345 1.92,-0.36c7.481,-0.178 15.267,-0.451 22.8,-0.6c2.418,-0.048 4.874,-0.347 7.32,-0.36c5.063,-0.027 9.952,-0.36 15,-0.36c4.781,0 9.859,-0.115 14.88,0c4.992,0.114 9.983,0.514 15,0.72c2.364,0.098 4.757,0.336 7.08,0.6c4.302,0.489 9.122,0.84 13.68,1.44c2.238,0.295 4.443,0.792 6.48,1.2c2.03,0.407 4.325,0.833 6.48,1.44c0.998,0.281 2.108,0.585 3.12,0.84c1.238,0.312 2.391,0.788 3.24,0.72c0.69,-0.055 1.671,-0.65 2.64,-1.08c5.38,-2.385 10.793,-4.207 16.44,-6c0.935,-0.297 2.064,-0.343 2.64,-1.2c-0.896,-0.868 -2.097,-1.173 -3.24,-1.68l0,0Zm150.36,-8.28c-2.412,-0.042 -5.924,-0.294 -9.239,-0.36c-3.995,-0.079 -8.281,-0.232 -11.28,-0.12c-4.279,0.16 -9.128,-0.085 -13.44,0.12c-6.399,0.305 -12.834,0.353 -18.359,0.84c-6.248,0.551 -13.348,1.09 -18.96,1.68c-7.504,0.789 -14.151,1.821 -21.24,3.24c-3.594,0.719 -7.201,1.509 -10.8,2.28c-1.729,0.371 -3.44,0.863 -5.16,1.2c-1.835,0.36 -3.662,0.748 -5.4,1.2c-7.539,1.959 -15.663,3.549 -23.16,5.64c-2.393,0.667 -5.051,1.291 -7.56,2.04c-10.506,3.137 -18.67,6.516 -28.32,11.16c-2.819,1.357 -5.766,3.035 -8.64,4.56c-1.526,0.81 -2.896,1.496 -4.2,2.4c-2.132,1.478 -4.504,3.584 -5.4,6c-1.336,3.604 1.497,7.524 3.48,9.24c2.015,1.744 4.375,2.854 7.8,3.12c3.628,0.282 7.528,0.12 11.16,-0.24c3.702,-0.367 7.242,-1.017 10.68,-1.56c7.261,-1.146 13.706,-2.671 19.8,-4.32c3.04,-0.822 6.157,-1.746 9.12,-2.76c6.223,-2.13 12.32,-3.88 18.12,-6.48c3.261,-1.461 6.788,-2.786 9.841,-4.08c1.869,-0.793 3.681,-1.549 5.52,-2.28c1.089,-0.433 2.362,-1.071 3.24,-1.44c0.394,-0.166 0.811,-0.208 1.2,-0.36c2.229,-0.872 4.474,-1.792 6.72,-2.64c1.486,-0.562 3.067,-1.022 4.56,-1.56c4.669,-1.684 9.451,-3.089 14.16,-4.32c2.469,-0.646 5.119,-1.134 7.32,-1.68c0.791,-0.196 1.597,-0.533 2.399,-0.72c3.304,-0.768 6.723,-1.292 10.08,-2.16c1.665,-0.431 3.432,-0.64 5.16,-1.08c1.618,-0.412 3.268,-0.93 4.92,-1.32c1.73,-0.408 3.556,-0.569 5.28,-0.96c1.749,-0.396 3.545,-0.559 5.16,-1.08c1.158,-0.374 2.323,-1.124 3.479,-1.68c3.521,-1.694 6.973,-3.422 10.44,-5.04c3.656,-1.706 7.381,-2.988 11.04,-4.44c1.234,-0.49 2.77,-0.872 3.479,-1.8c-0.947,-0.442 -1.988,-0.222 -3,-0.24l0,0Zm-40.44,24.36c-2.803,0.652 -5.663,1.12 -8.4,1.68c-2.786,0.57 -5.543,1.21 -8.16,2.04c-2.709,0.859 -5.372,1.608 -8.04,2.4c-8.102,2.406 -15.865,4.96 -23.399,7.8c-5.024,1.894 -9.938,3.994 -14.88,6c-8.613,3.497 -17.57,7.007 -26.521,9.84c-1.288,0.408 -2.567,0.765 -3.84,1.2c-6.64,2.269 -13.082,3.699 -20.28,5.4c-1.389,0.328 -2.802,0.584 -4.2,0.84c-2.933,0.537 -5.856,1.338 -8.64,1.56c-2.595,0.207 -5.06,0.116 -7.44,0c-2.478,-0.121 -4.893,-0.183 -7.44,-0.48c-4.988,-0.582 -9.367,-1.951 -12.84,-4.08c-5.128,-3.144 -9.556,-7.327 -13.56,-11.76c-0.505,-0.56 -1.099,-1.411 -1.92,-2.28c-0.652,-0.69 -1.634,-1.901 -2.28,-2.04c-0.607,-0.13 -1.483,0.126 -2.4,0.24c-12.493,1.554 -24.278,2.367 -36.48,4.08c-0.001,0.544 0.616,0.951 0.96,1.2c1.527,1.107 3.174,1.808 4.68,2.88c0.986,0.701 2.036,1.298 3.12,1.92c1.604,0.92 3.138,2.085 4.56,3c3.637,2.338 7.308,4.545 10.56,7.08c3.628,2.244 6.919,4.803 10.44,7.08c3.541,2.29 7.183,4.451 10.8,6.84c7.147,4.72 13.761,9.991 23.4,11.64c10.428,1.784 21.229,1.049 30.12,-1.92c2.215,-0.74 4.486,-1.34 6.6,-2.16c2.136,-0.828 4.165,-1.775 6.24,-2.64c4.202,-1.751 8.392,-3.347 12.36,-5.28c1.937,-0.943 3.917,-1.957 5.88,-2.88c1.992,-0.937 3.999,-1.796 5.88,-2.88c3.767,-2.171 7.619,-4.104 11.4,-6.24c3.745,-2.116 7.458,-4.272 11.159,-6.48c3.726,-2.223 7.653,-4.083 11.4,-6.24c3.708,-2.134 7.494,-4.204 11.16,-6.36c5.616,-3.304 11.319,-6.375 16.56,-9.84c1.786,-1.181 3.493,-2.441 5.28,-3.6c1.765,-1.144 3.625,-2.15 5.28,-3.479c0.811,-0.652 1.663,-1.261 2.52,-1.92c0.778,-0.599 1.827,-1.256 2.16,-2.28c-0.652,-0.063 -1.45,0.038 -1.799,0.119l0,0Z" style="fill:#fff;stroke:#fbfdff;stroke-width:1px;"/></svg>